<?xml version="1.0" standalone="no"?>
<!DOCTYPE svg PUBLIC "-//W3C//DTD SVG 20010904//EN"
 "http://www.w3.org/TR/2001/REC-SVG-20010904/DTD/svg10.dtd">
<svg version="1.0" xmlns="http://www.w3.org/2000/svg"
 width="500.000000pt" height="500.000000pt" viewBox="0 0 500.000000 500.000000"
 preserveAspectRatio="xMidYMid meet">
<metadata>
Created by potrace 1.11, written by Peter Selinger 2001-2013
</metadata>
<g transform="translate(0.000000,500.000000) scale(0.100000,-0.100000)"
fill="#000000" stroke="none">
<path d="M2455 4933 c-23 -236 -70 -463 -159 -765 -66 -228 -80 -309 -74 -435
6 -122 44 -240 129 -403 89 -169 80 -161 172 -158 l77 3 -45 72 c-103 167
-176 336 -195 458 -15 96 0 187 76 447 85 294 122 476 159 796 l6 52 -70 0
-69 0 -7 -67z"/>
<path d="M3500 2965 c-72 -33 -106 -82 -116 -167 -14 -119 45 -209 153 -232
70 -15 170 40 199 111 21 50 18 149 -7 201 -40 82 -148 123 -229 87z"/>
<path d="M1411 2862 c-66 -33 -75 -57 -81 -210 l-5 -137 -135 -5 c-147 -5
-170 -12 -200 -63 -28 -45 -28 -169 0 -214 30 -51 53 -58 200 -63 l135 -5 5
-142 c5 -141 5 -142 35 -173 44 -46 93 -57 151 -35 68 26 84 58 84 171 0 50 3
112 6 138 l7 46 129 0 c145 0 176 9 208 63 24 39 27 150 6 202 -25 60 -53 69
-210 75 l-141 5 -5 140 c-6 158 -12 174 -76 205 -50 25 -69 25 -113 2z"/>
<path d="M3115 2581 c-73 -33 -105 -93 -105 -193 0 -85 27 -140 88 -175 91
-54 203 -24 256 67 25 43 27 170 3 216 -46 89 -152 126 -242 85z"/>
<path d="M3862 2579 c-64 -32 -96 -85 -100 -169 -5 -87 9 -130 58 -174 129
-116 310 -26 310 154 0 87 -43 159 -115 191 -53 24 -101 24 -153 -2z"/>
<path d="M3534 2220 c-50 -11 -98 -46 -122 -88 -17 -31 -22 -56 -22 -116 0
-82 12 -116 52 -152 60 -56 132 -68 203 -35 79 36 105 84 105 193 0 57 -5 79
-24 112 -38 64 -122 102 -192 86z"/>
</g>
</svg>
